<svg xmlns="http://www.w3.org/2000/svg" viewBox="0 0 1324.8 1136.2" width="1325" height="1136" role="img" aria-label="Power Over Porn">
  <g transform="translate(48.0,255.0) scale(0.30000,-0.30000)"><path d="M75 0V687H453Q523 687 572.5 658.5Q622 630 648.5 579.5Q675 529 675 461Q675 391 647.5 340.0Q620 289 569.5 260.5Q519 232 449 232H254V0ZM254 370H407Q449 370 471.0 393.5Q493 417 493 459Q493 489 483.5 508.0Q474 527 455.0 537.5Q436 548 407 548H254ZM1143.0 -12Q1030.0 -12 949.5 27.5Q869.0 67 826.0 146.0Q783.0 225 783.0 344Q783.0 463 826.0 541.5Q869.0 620 949.5 659.5Q1030.0 699 1143.0 699Q1256.0 699 1336.5 659.5Q1417.0 620 1460.0 541.5Q1503.0 463 1503.0 344Q1503.0 225 1460.0 146.0Q1417.0 67 1336.5 27.5Q1256.0 -12 1143.0 -12ZM1143.0 128Q1186.0 128 1219.0 141.0Q1252.0 154 1274.5 179.0Q1297.0 204 1308.0 240.0Q1319.0 276 1319.0 321V365Q1319.0 411 1308.0 447.0Q1297.0 483 1274.5 508.0Q1252.0 533 1219.0 546.0Q1186.0 559 1143.0 559Q1099.0 559 1066.0 546.0Q1033.0 533 1011.0 508.0Q989.0 483 978.0 447.0Q967.0 411 967.0 365V321Q967.0 276 978.0 240.0Q989.0 204 1011.0 179.0Q1033.0 154 1066.0 141.0Q1099.0 128 1143.0 128ZM1768.0 0 1595.0 687H1783.0L1867.0 326Q1869.0 317 1872.0 300.0Q1875.0 283 1878.5 264.0Q1882.0 245 1885.0 229H1889.0Q1891.0 239 1893.0 252.5Q1895.0 266 1897.5 279.5Q1900.0 293 1902.5 305.0Q1905.0 317 1906.0 326L1985.0 687H2180.0L2261.0 326Q2264.0 316 2267.0 299.0Q2270.0 282 2273.5 263.0Q2277.0 244 2280.0 229H2284.0Q2286.0 240 2288.5 252.5Q2291.0 265 2293.5 278.5Q2296.0 292 2298.5 304.0Q2301.0 316 2303.0 326L2384.0 687H2560.0L2387.0 0H2187.0L2099.0 380Q2097.0 394 2093.0 412.0Q2089.0 430 2085.5 448.0Q2082.0 466 2080.0 480H2076.0Q2074.0 466 2071.0 448.0Q2068.0 430 2064.5 412.0Q2061.0 394 2058.0 380L1971.0 0ZM2684.0 0V687H3251.0V547H2863.0V418H3202.0V281H2863.0V140H3258.0V0ZM3421.0 0V687H3820.0Q3896.0 687 3947.0 658.5Q3998.0 630 4023.5 580.5Q4049.0 531 4049.0 470Q4049.0 404 4018.5 352.5Q3988.0 301 3933.0 272L4071.0 0H3871.0L3757.0 242H3600.0V0ZM3600.0 375H3785.0Q3822.0 375 3844.5 399.5Q3867.0 424 3867.0 465Q3867.0 492 3857.0 511.0Q3847.0 530 3829.0 540.5Q3811.0 551 3785.0 551H3600.0Z" fill="#E8242B"/></g>
  <g transform="translate(293.8,438.0) scale(0.10200,-0.10200)"><path d="M278 -12Q202 -12 148.5 17.5Q95 47 67.5 108.0Q40 169 40 263Q40 358 67.5 418.5Q95 479 148.5 508.5Q202 538 278 538Q356 538 408.5 508.5Q461 479 488.5 418.5Q516 358 516 263Q516 169 488.5 108.0Q461 47 408.5 17.5Q356 -12 278 -12ZM278 49Q331 49 367.0 70.0Q403 91 422.0 135.5Q441 180 441 251V275Q441 346 422.0 390.5Q403 435 367.0 456.0Q331 477 278 477Q225 477 189.0 456.0Q153 435 134.0 390.5Q115 346 115 275V251Q115 180 134.0 135.5Q153 91 189.0 70.0Q225 49 278 49ZM2540.764297385621 0 2345.764297385621 526H2421.764297385621L2522.764297385621 251Q2529.764297385621 231 2539.264297385621 202.5Q2548.764297385621 174 2558.264297385621 145.0Q2567.764297385621 116 2574.764297385621 94H2579.764297385621Q2586.764297385621 116 2596.264297385621 144.5Q2605.764297385621 173 2615.764297385621 202.0Q2625.764297385621 231 2632.764297385621 251L2732.764297385621 526H2805.764297385621L2610.764297385621 0ZM4869.528594771242 -12Q4794.528594771242 -12 4742.528594771242 17.5Q4690.528594771242 47 4663.528594771242 108.0Q4636.528594771242 169 4636.528594771242 263Q4636.528594771242 358 4663.528594771242 418.5Q4690.528594771242 479 4743.528594771242 508.5Q4796.528594771242 538 4875.528594771242 538Q4948.528594771242 538 4998.028594771242 509.0Q5047.528594771242 480 5073.028594771242 425.0Q5098.528594771242 370 5098.528594771242 290V244H4711.528594771242Q4711.528594771242 175 4730.528594771242 131.0Q4749.528594771242 87 4785.028594771242 67.5Q4820.528594771242 48 4872.528594771242 48Q4910.528594771242 48 4939.028594771242 58.0Q4967.528594771242 68 4986.028594771242 85.5Q5004.528594771242 103 5014.528594771242 127.0Q5024.528594771242 151 5024.528594771242 177H5094.528594771242Q5094.528594771242 138 5080.028594771242 103.5Q5065.528594771242 69 5038.028594771242 43.0Q5010.528594771242 17 4968.528594771242 2.5Q4926.528594771242 -12 4869.528594771242 -12ZM4711.528594771242 301H5023.528594771242Q5023.528594771242 351 5012.028594771242 384.5Q5000.528594771242 418 4980.528594771242 438.5Q4960.528594771242 459 4933.028594771242 468.0Q4905.528594771242 477 4871.528594771242 477Q4822.528594771242 477 4787.528594771242 458.5Q4752.528594771242 440 4734.028594771242 401.0Q4715.528594771242 362 4711.528594771242 301ZM6981.292892156863 0V526H7039.292892156863L7045.292892156863 438H7052.292892156863Q7059.292892156863 462 7073.292892156863 485.0Q7087.292892156863 508 7111.292892156863 523.0Q7135.292892156863 538 7172.292892156863 538Q7186.292892156863 538 7198.292892156863 535.5Q7210.292892156863 533 7216.292892156863 531V465H7185.292892156863Q7150.292892156863 465 7125.292892156863 452.5Q7100.292892156863 440 7084.292892156863 417.0Q7068.292892156863 394 7060.792892156863 364.5Q7053.292892156863 335 7053.292892156863 303V0Z" fill="#F4EFEA"/></g>
  <g transform="translate(48.0,994.0) scale(0.30650,-0.30650)"><path d="M1328 961Q1315 854 1264.5 767.5Q1214 681 1132.5 619.5Q1051 558 943.0 525.0Q835 492 705 492Q620 492 568.5 507.0Q517 522 467 548L473 562Q531 534 577.0 524.5Q623 515 671 515Q774 515 855.5 563.5Q937 612 994.0 713.5Q1051 815 1078 973Q1103 1121 1079.0 1211.0Q1055 1301 996.0 1342.0Q937 1383 856 1383Q807 1383 776.5 1364.5Q746 1346 734 1307Q728 1291 708.5 1219.0Q689 1147 659.5 1038.5Q630 930 596.0 804.5Q562 679 529.0 553.5Q496 428 467.5 322.0Q439 216 421.5 148.0Q404 80 401 69Q397 53 403.0 42.0Q409 31 426 29L560 17Q567 16 570.5 14.0Q574 12 574 8Q574 4 570.5 2.0Q567 0 560 0H-14Q-19 0 -22.0 1.5Q-25 3 -25 7Q-25 10 -22.5 12.5Q-20 15 -13 16L77 27Q98 29 108.5 41.0Q119 53 127 74Q130 84 149.0 153.0Q168 222 197.5 329.5Q227 437 262.5 564.5Q298 692 332.5 820.0Q367 948 397.0 1057.5Q427 1167 446.0 1238.5Q465 1310 467 1323Q472 1345 465.0 1357.0Q458 1369 436 1372L347 1384Q338 1385 335.5 1387.5Q333 1390 333 1393Q333 1397 336.5 1398.5Q340 1400 347 1400H903Q1008 1400 1092.0 1369.0Q1176 1338 1233.0 1280.5Q1290 1223 1315.5 1142.0Q1341 1061 1328 961ZM1816.0 900Q1928.0 898 2006.5 846.0Q2085.0 794 2121.5 699.5Q2158.0 605 2141.0 477Q2128.0 374 2086.0 284.5Q2044.0 195 1975.5 127.0Q1907.0 59 1816.5 20.5Q1726.0 -18 1617.0 -18Q1513.0 -18 1432.0 31.0Q1351.0 80 1311.5 173.0Q1272.0 266 1288.0 397Q1303.0 509 1348.0 601.5Q1393.0 694 1463.0 762.0Q1533.0 830 1623.0 866.0Q1713.0 902 1816.0 900ZM1618.0 7Q1655.0 7 1694.5 48.5Q1734.0 90 1771.0 158.5Q1808.0 227 1838.5 311.0Q1869.0 395 1889.5 482.0Q1910.0 569 1916.0 646Q1927.0 728 1917.0 777.5Q1907.0 827 1882.5 850.0Q1858.0 873 1824.0 875Q1785.0 876 1744.0 836.0Q1703.0 796 1664.5 727.5Q1626.0 659 1594.0 574.0Q1562.0 489 1540.5 399.5Q1519.0 310 1512.0 229Q1502.0 144 1513.5 95.5Q1525.0 47 1553.0 27.0Q1581.0 7 1618.0 7ZM2254.0 690Q2251.0 691 2251.5 694.0Q2252.0 697 2256.0 704Q2293.0 762 2340.5 805.5Q2388.0 849 2442.0 872.5Q2496.0 896 2549.0 896Q2604.0 896 2629.5 871.5Q2655.0 847 2655.0 804Q2655.0 767 2644.0 726.0Q2633.0 685 2614.5 635.0Q2596.0 585 2574.0 521.5Q2552.0 458 2530.0 374L2520.0 378Q2557.0 493 2603.5 587.5Q2650.0 682 2703.5 751.0Q2757.0 820 2815.0 858.0Q2873.0 896 2932.0 896Q2992.0 896 3020.0 851.0Q3048.0 806 3039.0 742Q3033.0 695 3013.0 662.0Q2993.0 629 2964.5 612.0Q2936.0 595 2901.0 595Q2864.0 595 2841.5 612.5Q2819.0 630 2819.0 666Q2819.0 687 2824.0 707.0Q2829.0 727 2829.0 744Q2829.0 763 2822.5 773.5Q2816.0 784 2801.0 784Q2767.0 784 2720.0 735.0Q2673.0 686 2623.0 588.5Q2573.0 491 2529.0 344Q2510.0 277 2497.0 229.5Q2484.0 182 2484.0 150Q2484.0 127 2495.5 114.0Q2507.0 101 2518.5 92.5Q2530.0 84 2530.0 74Q2530.0 59 2498.0 37.0Q2466.0 15 2412.5 -1.5Q2359.0 -18 2296.0 -18Q2257.0 -18 2240.0 -3.0Q2223.0 12 2222.5 40.5Q2222.0 69 2234.0 110L2396.0 644Q2422.0 727 2418.0 757.0Q2414.0 787 2388.0 787Q2367.0 787 2340.0 769.5Q2313.0 752 2268.0 699Q2264.0 694 2260.5 692.0Q2257.0 690 2254.0 690ZM3052.0 690Q3049.0 691 3049.5 695.0Q3050.0 699 3054.0 704Q3109.0 792 3188.0 844.0Q3267.0 896 3347.0 896Q3399.0 896 3426.0 872.5Q3453.0 849 3453.0 802Q3453.0 769 3441.0 723.0Q3429.0 677 3413.0 629.5Q3397.0 582 3383.0 542.0Q3369.0 502 3364.0 481L3358.0 483Q3412.0 599 3474.0 678.5Q3536.0 758 3599.5 805.5Q3663.0 853 3722.5 874.5Q3782.0 896 3832.0 896Q3895.0 896 3925.0 867.0Q3955.0 838 3957.0 784.5Q3959.0 731 3937.0 657L3801.0 218Q3774.0 129 3782.0 100.0Q3790.0 71 3814.0 71Q3835.0 71 3860.5 89.0Q3886.0 107 3923.0 154Q3929.0 163 3931.5 165.5Q3934.0 168 3937.0 167Q3941.0 166 3940.5 160.5Q3940.0 155 3935.0 145Q3895.0 72 3825.0 27.0Q3755.0 -18 3655.0 -18Q3597.0 -18 3568.5 3.5Q3540.0 25 3538.0 68.0Q3536.0 111 3557.0 178L3692.0 614Q3722.0 709 3711.5 742.5Q3701.0 776 3659.0 776Q3632.0 776 3590.5 752.5Q3549.0 729 3501.5 677.0Q3454.0 625 3406.5 541.5Q3359.0 458 3319.0 339Q3300.0 283 3289.0 240.0Q3278.0 197 3273.5 166.5Q3269.0 136 3269.0 118Q3269.0 99 3277.0 87.5Q3285.0 76 3285.0 58Q3285.0 25 3231.5 3.5Q3178.0 -18 3084.0 -18Q3023.0 -18 3012.0 6.5Q3001.0 31 3018.0 85L3194.0 644Q3221.0 727 3216.5 757.0Q3212.0 787 3186.0 787Q3165.0 787 3138.0 769.5Q3111.0 752 3066.0 699Q3062.0 694 3058.5 692.0Q3055.0 690 3052.0 690Z" fill="#F4EFEA"/></g>
</svg>
