<svg xmlns="http://www.w3.org/2000/svg" viewBox="0 0 1324.8 1030.3" width="1325" height="1030" role="img" aria-label="Power Over Porn">
  <g transform="translate(48.0,311.4) scale(0.30000,-0.30000)"><path d="M75 0V687H453Q523 687 572.5 658.5Q622 630 648.5 579.5Q675 529 675 461Q675 391 647.5 340.0Q620 289 569.5 260.5Q519 232 449 232H254V0ZM254 370H407Q449 370 471.0 393.5Q493 417 493 459Q493 489 483.5 508.0Q474 527 455.0 537.5Q436 548 407 548H254ZM1143.0 -12Q1030.0 -12 949.5 27.5Q869.0 67 826.0 146.0Q783.0 225 783.0 344Q783.0 463 826.0 541.5Q869.0 620 949.5 659.5Q1030.0 699 1143.0 699Q1256.0 699 1336.5 659.5Q1417.0 620 1460.0 541.5Q1503.0 463 1503.0 344Q1503.0 225 1460.0 146.0Q1417.0 67 1336.5 27.5Q1256.0 -12 1143.0 -12ZM1143.0 128Q1186.0 128 1219.0 141.0Q1252.0 154 1274.5 179.0Q1297.0 204 1308.0 240.0Q1319.0 276 1319.0 321V365Q1319.0 411 1308.0 447.0Q1297.0 483 1274.5 508.0Q1252.0 533 1219.0 546.0Q1186.0 559 1143.0 559Q1099.0 559 1066.0 546.0Q1033.0 533 1011.0 508.0Q989.0 483 978.0 447.0Q967.0 411 967.0 365V321Q967.0 276 978.0 240.0Q989.0 204 1011.0 179.0Q1033.0 154 1066.0 141.0Q1099.0 128 1143.0 128ZM1768.0 0 1595.0 687H1783.0L1867.0 326Q1869.0 317 1872.0 300.0Q1875.0 283 1878.5 264.0Q1882.0 245 1885.0 229H1889.0Q1891.0 239 1893.0 252.5Q1895.0 266 1897.5 279.5Q1900.0 293 1902.5 305.0Q1905.0 317 1906.0 326L1985.0 687H2180.0L2261.0 326Q2264.0 316 2267.0 299.0Q2270.0 282 2273.5 263.0Q2277.0 244 2280.0 229H2284.0Q2286.0 240 2288.5 252.5Q2291.0 265 2293.5 278.5Q2296.0 292 2298.5 304.0Q2301.0 316 2303.0 326L2384.0 687H2560.0L2387.0 0H2187.0L2099.0 380Q2097.0 394 2093.0 412.0Q2089.0 430 2085.5 448.0Q2082.0 466 2080.0 480H2076.0Q2074.0 466 2071.0 448.0Q2068.0 430 2064.5 412.0Q2061.0 394 2058.0 380L1971.0 0ZM2684.0 0V687H3251.0V547H2863.0V418H3202.0V281H2863.0V140H3258.0V0ZM3421.0 0V687H3820.0Q3896.0 687 3947.0 658.5Q3998.0 630 4023.5 580.5Q4049.0 531 4049.0 470Q4049.0 404 4018.5 352.5Q3988.0 301 3933.0 272L4071.0 0H3871.0L3757.0 242H3600.0V0ZM3600.0 375H3785.0Q3822.0 375 3844.5 399.5Q3867.0 424 3867.0 465Q3867.0 492 3857.0 511.0Q3847.0 530 3829.0 540.5Q3811.0 551 3785.0 551H3600.0Z" fill="#E8242B"/></g>
  <g transform="translate(48.0,558.6) scale(0.13800,-0.13800)"><path d="M278 -12Q202 -12 148.5 17.5Q95 47 67.5 108.0Q40 169 40 263Q40 358 67.5 418.5Q95 479 148.5 508.5Q202 538 278 538Q356 538 408.5 508.5Q461 479 488.5 418.5Q516 358 516 263Q516 169 488.5 108.0Q461 47 408.5 17.5Q356 -12 278 -12ZM278 49Q331 49 367.0 70.0Q403 91 422.0 135.5Q441 180 441 251V275Q441 346 422.0 390.5Q403 435 367.0 456.0Q331 477 278 477Q225 477 189.0 456.0Q153 435 134.0 390.5Q115 346 115 275V251Q115 180 134.0 135.5Q153 91 189.0 70.0Q225 49 278 49ZM3099.449275362319 0 2904.449275362319 526H2980.449275362319L3081.449275362319 251Q3088.449275362319 231 3097.949275362319 202.5Q3107.449275362319 174 3116.949275362319 145.0Q3126.449275362319 116 3133.449275362319 94H3138.449275362319Q3145.449275362319 116 3154.949275362319 144.5Q3164.449275362319 173 3174.449275362319 202.0Q3184.449275362319 231 3191.449275362319 251L3291.449275362319 526H3364.449275362319L3169.449275362319 0ZM5986.898550724638 -12Q5911.898550724638 -12 5859.898550724638 17.5Q5807.898550724638 47 5780.898550724638 108.0Q5753.898550724638 169 5753.898550724638 263Q5753.898550724638 358 5780.898550724638 418.5Q5807.898550724638 479 5860.898550724638 508.5Q5913.898550724638 538 5992.898550724638 538Q6065.898550724638 538 6115.398550724638 509.0Q6164.898550724638 480 6190.398550724638 425.0Q6215.898550724638 370 6215.898550724638 290V244H5828.898550724638Q5828.898550724638 175 5847.898550724638 131.0Q5866.898550724638 87 5902.398550724638 67.5Q5937.898550724638 48 5989.898550724638 48Q6027.898550724638 48 6056.398550724638 58.0Q6084.898550724638 68 6103.398550724638 85.5Q6121.898550724638 103 6131.898550724638 127.0Q6141.898550724638 151 6141.898550724638 177H6211.898550724638Q6211.898550724638 138 6197.398550724638 103.5Q6182.898550724638 69 6155.398550724638 43.0Q6127.898550724638 17 6085.898550724638 2.5Q6043.898550724638 -12 5986.898550724638 -12ZM5828.898550724638 301H6140.898550724638Q6140.898550724638 351 6129.398550724638 384.5Q6117.898550724638 418 6097.898550724638 438.5Q6077.898550724638 459 6050.398550724638 468.0Q6022.898550724638 477 5988.898550724638 477Q5939.898550724638 477 5904.898550724638 458.5Q5869.898550724638 440 5851.398550724638 401.0Q5832.898550724638 362 5828.898550724638 301ZM8657.347826086956 0V526H8715.347826086956L8721.347826086956 438H8728.347826086956Q8735.347826086956 462 8749.347826086956 485.0Q8763.347826086956 508 8787.347826086956 523.0Q8811.347826086956 538 8848.347826086956 538Q8862.347826086956 538 8874.347826086956 535.5Q8886.347826086956 533 8892.347826086956 531V465H8861.347826086956Q8826.347826086956 465 8801.347826086956 452.5Q8776.347826086956 440 8760.347826086956 417.0Q8744.347826086956 394 8736.847826086956 364.5Q8729.347826086956 335 8729.347826086956 303V0Z" fill="#F4EFEA"/></g>
  <g transform="translate(366.7,907.1) scale(0.14750,-0.14750)"><path d="M1328 961Q1315 854 1264.5 767.5Q1214 681 1132.5 619.5Q1051 558 943.0 525.0Q835 492 705 492Q620 492 568.5 507.0Q517 522 467 548L473 562Q531 534 577.0 524.5Q623 515 671 515Q774 515 855.5 563.5Q937 612 994.0 713.5Q1051 815 1078 973Q1103 1121 1079.0 1211.0Q1055 1301 996.0 1342.0Q937 1383 856 1383Q807 1383 776.5 1364.5Q746 1346 734 1307Q728 1291 708.5 1219.0Q689 1147 659.5 1038.5Q630 930 596.0 804.5Q562 679 529.0 553.5Q496 428 467.5 322.0Q439 216 421.5 148.0Q404 80 401 69Q397 53 403.0 42.0Q409 31 426 29L560 17Q567 16 570.5 14.0Q574 12 574 8Q574 4 570.5 2.0Q567 0 560 0H-14Q-19 0 -22.0 1.5Q-25 3 -25 7Q-25 10 -22.5 12.5Q-20 15 -13 16L77 27Q98 29 108.5 41.0Q119 53 127 74Q130 84 149.0 153.0Q168 222 197.5 329.5Q227 437 262.5 564.5Q298 692 332.5 820.0Q367 948 397.0 1057.5Q427 1167 446.0 1238.5Q465 1310 467 1323Q472 1345 465.0 1357.0Q458 1369 436 1372L347 1384Q338 1385 335.5 1387.5Q333 1390 333 1393Q333 1397 336.5 1398.5Q340 1400 347 1400H903Q1008 1400 1092.0 1369.0Q1176 1338 1233.0 1280.5Q1290 1223 1315.5 1142.0Q1341 1061 1328 961ZM1816.0 900Q1928.0 898 2006.5 846.0Q2085.0 794 2121.5 699.5Q2158.0 605 2141.0 477Q2128.0 374 2086.0 284.5Q2044.0 195 1975.5 127.0Q1907.0 59 1816.5 20.5Q1726.0 -18 1617.0 -18Q1513.0 -18 1432.0 31.0Q1351.0 80 1311.5 173.0Q1272.0 266 1288.0 397Q1303.0 509 1348.0 601.5Q1393.0 694 1463.0 762.0Q1533.0 830 1623.0 866.0Q1713.0 902 1816.0 900ZM1618.0 7Q1655.0 7 1694.5 48.5Q1734.0 90 1771.0 158.5Q1808.0 227 1838.5 311.0Q1869.0 395 1889.5 482.0Q1910.0 569 1916.0 646Q1927.0 728 1917.0 777.5Q1907.0 827 1882.5 850.0Q1858.0 873 1824.0 875Q1785.0 876 1744.0 836.0Q1703.0 796 1664.5 727.5Q1626.0 659 1594.0 574.0Q1562.0 489 1540.5 399.5Q1519.0 310 1512.0 229Q1502.0 144 1513.5 95.5Q1525.0 47 1553.0 27.0Q1581.0 7 1618.0 7ZM2254.0 690Q2251.0 691 2251.5 694.0Q2252.0 697 2256.0 704Q2293.0 762 2340.5 805.5Q2388.0 849 2442.0 872.5Q2496.0 896 2549.0 896Q2604.0 896 2629.5 871.5Q2655.0 847 2655.0 804Q2655.0 767 2644.0 726.0Q2633.0 685 2614.5 635.0Q2596.0 585 2574.0 521.5Q2552.0 458 2530.0 374L2520.0 378Q2557.0 493 2603.5 587.5Q2650.0 682 2703.5 751.0Q2757.0 820 2815.0 858.0Q2873.0 896 2932.0 896Q2992.0 896 3020.0 851.0Q3048.0 806 3039.0 742Q3033.0 695 3013.0 662.0Q2993.0 629 2964.5 612.0Q2936.0 595 2901.0 595Q2864.0 595 2841.5 612.5Q2819.0 630 2819.0 666Q2819.0 687 2824.0 707.0Q2829.0 727 2829.0 744Q2829.0 763 2822.5 773.5Q2816.0 784 2801.0 784Q2767.0 784 2720.0 735.0Q2673.0 686 2623.0 588.5Q2573.0 491 2529.0 344Q2510.0 277 2497.0 229.5Q2484.0 182 2484.0 150Q2484.0 127 2495.5 114.0Q2507.0 101 2518.5 92.5Q2530.0 84 2530.0 74Q2530.0 59 2498.0 37.0Q2466.0 15 2412.5 -1.5Q2359.0 -18 2296.0 -18Q2257.0 -18 2240.0 -3.0Q2223.0 12 2222.5 40.5Q2222.0 69 2234.0 110L2396.0 644Q2422.0 727 2418.0 757.0Q2414.0 787 2388.0 787Q2367.0 787 2340.0 769.5Q2313.0 752 2268.0 699Q2264.0 694 2260.5 692.0Q2257.0 690 2254.0 690ZM3052.0 690Q3049.0 691 3049.5 695.0Q3050.0 699 3054.0 704Q3109.0 792 3188.0 844.0Q3267.0 896 3347.0 896Q3399.0 896 3426.0 872.5Q3453.0 849 3453.0 802Q3453.0 769 3441.0 723.0Q3429.0 677 3413.0 629.5Q3397.0 582 3383.0 542.0Q3369.0 502 3364.0 481L3358.0 483Q3412.0 599 3474.0 678.5Q3536.0 758 3599.5 805.5Q3663.0 853 3722.5 874.5Q3782.0 896 3832.0 896Q3895.0 896 3925.0 867.0Q3955.0 838 3957.0 784.5Q3959.0 731 3937.0 657L3801.0 218Q3774.0 129 3782.0 100.0Q3790.0 71 3814.0 71Q3835.0 71 3860.5 89.0Q3886.0 107 3923.0 154Q3929.0 163 3931.5 165.5Q3934.0 168 3937.0 167Q3941.0 166 3940.5 160.5Q3940.0 155 3935.0 145Q3895.0 72 3825.0 27.0Q3755.0 -18 3655.0 -18Q3597.0 -18 3568.5 3.5Q3540.0 25 3538.0 68.0Q3536.0 111 3557.0 178L3692.0 614Q3722.0 709 3711.5 742.5Q3701.0 776 3659.0 776Q3632.0 776 3590.5 752.5Q3549.0 729 3501.5 677.0Q3454.0 625 3406.5 541.5Q3359.0 458 3319.0 339Q3300.0 283 3289.0 240.0Q3278.0 197 3273.5 166.5Q3269.0 136 3269.0 118Q3269.0 99 3277.0 87.5Q3285.0 76 3285.0 58Q3285.0 25 3231.5 3.5Q3178.0 -18 3084.0 -18Q3023.0 -18 3012.0 6.5Q3001.0 31 3018.0 85L3194.0 644Q3221.0 727 3216.5 757.0Q3212.0 787 3186.0 787Q3165.0 787 3138.0 769.5Q3111.0 752 3066.0 699Q3062.0 694 3058.5 692.0Q3055.0 690 3052.0 690Z" fill="#F4EFEA"/></g>
</svg>
