<svg xmlns="http://www.w3.org/2000/svg" viewBox="0 0 1312.8 965.7" width="1313" height="966" role="img" aria-label="Power Over Porn">
  <g transform="translate(54.0,317.4) scale(0.30000,-0.30000)"><path d="M75 0V687H453Q523 687 572.5 658.5Q622 630 648.5 579.5Q675 529 675 461Q675 391 647.5 340.0Q620 289 569.5 260.5Q519 232 449 232H254V0ZM254 370H407Q449 370 471.0 393.5Q493 417 493 459Q493 489 483.5 508.0Q474 527 455.0 537.5Q436 548 407 548H254ZM1123.0 -12Q1010.0 -12 929.5 27.5Q849.0 67 806.0 146.0Q763.0 225 763.0 344Q763.0 463 806.0 541.5Q849.0 620 929.5 659.5Q1010.0 699 1123.0 699Q1236.0 699 1316.5 659.5Q1397.0 620 1440.0 541.5Q1483.0 463 1483.0 344Q1483.0 225 1440.0 146.0Q1397.0 67 1316.5 27.5Q1236.0 -12 1123.0 -12ZM1123.0 128Q1166.0 128 1199.0 141.0Q1232.0 154 1254.5 179.0Q1277.0 204 1288.0 240.0Q1299.0 276 1299.0 321V365Q1299.0 411 1288.0 447.0Q1277.0 483 1254.5 508.0Q1232.0 533 1199.0 546.0Q1166.0 559 1123.0 559Q1079.0 559 1046.0 546.0Q1013.0 533 991.0 508.0Q969.0 483 958.0 447.0Q947.0 411 947.0 365V321Q947.0 276 958.0 240.0Q969.0 204 991.0 179.0Q1013.0 154 1046.0 141.0Q1079.0 128 1123.0 128ZM1728.0 0 1555.0 687H1743.0L1827.0 326Q1829.0 317 1832.0 300.0Q1835.0 283 1838.5 264.0Q1842.0 245 1845.0 229H1849.0Q1851.0 239 1853.0 252.5Q1855.0 266 1857.5 279.5Q1860.0 293 1862.5 305.0Q1865.0 317 1866.0 326L1945.0 687H2140.0L2221.0 326Q2224.0 316 2227.0 299.0Q2230.0 282 2233.5 263.0Q2237.0 244 2240.0 229H2244.0Q2246.0 240 2248.5 252.5Q2251.0 265 2253.5 278.5Q2256.0 292 2258.5 304.0Q2261.0 316 2263.0 326L2344.0 687H2520.0L2347.0 0H2147.0L2059.0 380Q2057.0 394 2053.0 412.0Q2049.0 430 2045.5 448.0Q2042.0 466 2040.0 480H2036.0Q2034.0 466 2031.0 448.0Q2028.0 430 2024.5 412.0Q2021.0 394 2018.0 380L1931.0 0ZM2624.0 0V687H3191.0V547H2803.0V418H3142.0V281H2803.0V140H3198.0V0ZM3341.0 0V687H3740.0Q3816.0 687 3867.0 658.5Q3918.0 630 3943.5 580.5Q3969.0 531 3969.0 470Q3969.0 404 3938.5 352.5Q3908.0 301 3853.0 272L3991.0 0H3791.0L3677.0 242H3520.0V0ZM3520.0 375H3705.0Q3742.0 375 3764.5 399.5Q3787.0 424 3787.0 465Q3787.0 492 3777.0 511.0Q3767.0 530 3749.0 540.5Q3731.0 551 3705.0 551H3520.0Z" fill="#0C0A0B"/></g>
  <g transform="translate(161.7,515.4) scale(0.18000,-0.18000)"><path d="M278 -12Q202 -12 148.5 17.5Q95 47 67.5 108.0Q40 169 40 263Q40 358 67.5 418.5Q95 479 148.5 508.5Q202 538 278 538Q356 538 408.5 508.5Q461 479 488.5 418.5Q516 358 516 263Q516 169 488.5 108.0Q461 47 408.5 17.5Q356 -12 278 -12ZM278 49Q331 49 367.0 70.0Q403 91 422.0 135.5Q441 180 441 251V275Q441 346 422.0 390.5Q403 435 367.0 456.0Q331 477 278 477Q225 477 189.0 456.0Q153 435 134.0 390.5Q115 346 115 275V251Q115 180 134.0 135.5Q153 91 189.0 70.0Q225 49 278 49ZM1963.5833333333333 0 1768.5833333333333 526H1844.5833333333333L1945.5833333333333 251Q1952.5833333333333 231 1962.0833333333333 202.5Q1971.5833333333333 174 1981.0833333333333 145.0Q1990.5833333333333 116 1997.5833333333333 94H2002.5833333333333Q2009.5833333333333 116 2019.0833333333333 144.5Q2028.5833333333333 173 2038.583333333333 202.0Q2048.583333333333 231 2055.583333333333 251L2155.583333333333 526H2228.583333333333L2033.5833333333333 0ZM3715.1666666666665 -12Q3640.1666666666665 -12 3588.1666666666665 17.5Q3536.1666666666665 47 3509.1666666666665 108.0Q3482.1666666666665 169 3482.1666666666665 263Q3482.1666666666665 358 3509.1666666666665 418.5Q3536.1666666666665 479 3589.1666666666665 508.5Q3642.1666666666665 538 3721.1666666666665 538Q3794.1666666666665 538 3843.6666666666665 509.0Q3893.1666666666665 480 3918.6666666666665 425.0Q3944.1666666666665 370 3944.1666666666665 290V244H3557.1666666666665Q3557.1666666666665 175 3576.1666666666665 131.0Q3595.1666666666665 87 3630.6666666666665 67.5Q3666.1666666666665 48 3718.1666666666665 48Q3756.1666666666665 48 3784.6666666666665 58.0Q3813.1666666666665 68 3831.6666666666665 85.5Q3850.1666666666665 103 3860.1666666666665 127.0Q3870.1666666666665 151 3870.1666666666665 177H3940.1666666666665Q3940.1666666666665 138 3925.6666666666665 103.5Q3911.1666666666665 69 3883.6666666666665 43.0Q3856.1666666666665 17 3814.1666666666665 2.5Q3772.1666666666665 -12 3715.1666666666665 -12ZM3557.1666666666665 301H3869.1666666666665Q3869.1666666666665 351 3857.6666666666665 384.5Q3846.1666666666665 418 3826.1666666666665 438.5Q3806.1666666666665 459 3778.6666666666665 468.0Q3751.1666666666665 477 3717.1666666666665 477Q3668.1666666666665 477 3633.1666666666665 458.5Q3598.1666666666665 440 3579.6666666666665 401.0Q3561.1666666666665 362 3557.1666666666665 301ZM5249.75 0V526H5307.75L5313.75 438H5320.75Q5327.75 462 5341.75 485.0Q5355.75 508 5379.75 523.0Q5403.75 538 5440.75 538Q5454.75 538 5466.75 535.5Q5478.75 533 5484.75 531V465H5453.75Q5418.75 465 5393.75 452.5Q5368.75 440 5352.75 417.0Q5336.75 394 5329.25 364.5Q5321.75 335 5321.75 303V0Z" fill="#0C0A0B"/></g>
  <g transform="translate(301.6,821.4) scale(0.17700,-0.17700)"><path d="M1328 961Q1315 854 1264.5 767.5Q1214 681 1132.5 619.5Q1051 558 943.0 525.0Q835 492 705 492Q620 492 568.5 507.0Q517 522 467 548L473 562Q531 534 577.0 524.5Q623 515 671 515Q774 515 855.5 563.5Q937 612 994.0 713.5Q1051 815 1078 973Q1103 1121 1079.0 1211.0Q1055 1301 996.0 1342.0Q937 1383 856 1383Q807 1383 776.5 1364.5Q746 1346 734 1307Q728 1291 708.5 1219.0Q689 1147 659.5 1038.5Q630 930 596.0 804.5Q562 679 529.0 553.5Q496 428 467.5 322.0Q439 216 421.5 148.0Q404 80 401 69Q397 53 403.0 42.0Q409 31 426 29L560 17Q567 16 570.5 14.0Q574 12 574 8Q574 4 570.5 2.0Q567 0 560 0H-14Q-19 0 -22.0 1.5Q-25 3 -25 7Q-25 10 -22.5 12.5Q-20 15 -13 16L77 27Q98 29 108.5 41.0Q119 53 127 74Q130 84 149.0 153.0Q168 222 197.5 329.5Q227 437 262.5 564.5Q298 692 332.5 820.0Q367 948 397.0 1057.5Q427 1167 446.0 1238.5Q465 1310 467 1323Q472 1345 465.0 1357.0Q458 1369 436 1372L347 1384Q338 1385 335.5 1387.5Q333 1390 333 1393Q333 1397 336.5 1398.5Q340 1400 347 1400H903Q1008 1400 1092.0 1369.0Q1176 1338 1233.0 1280.5Q1290 1223 1315.5 1142.0Q1341 1061 1328 961ZM1816.0 900Q1928.0 898 2006.5 846.0Q2085.0 794 2121.5 699.5Q2158.0 605 2141.0 477Q2128.0 374 2086.0 284.5Q2044.0 195 1975.5 127.0Q1907.0 59 1816.5 20.5Q1726.0 -18 1617.0 -18Q1513.0 -18 1432.0 31.0Q1351.0 80 1311.5 173.0Q1272.0 266 1288.0 397Q1303.0 509 1348.0 601.5Q1393.0 694 1463.0 762.0Q1533.0 830 1623.0 866.0Q1713.0 902 1816.0 900ZM1618.0 7Q1655.0 7 1694.5 48.5Q1734.0 90 1771.0 158.5Q1808.0 227 1838.5 311.0Q1869.0 395 1889.5 482.0Q1910.0 569 1916.0 646Q1927.0 728 1917.0 777.5Q1907.0 827 1882.5 850.0Q1858.0 873 1824.0 875Q1785.0 876 1744.0 836.0Q1703.0 796 1664.5 727.5Q1626.0 659 1594.0 574.0Q1562.0 489 1540.5 399.5Q1519.0 310 1512.0 229Q1502.0 144 1513.5 95.5Q1525.0 47 1553.0 27.0Q1581.0 7 1618.0 7ZM2254.0 690Q2251.0 691 2251.5 694.0Q2252.0 697 2256.0 704Q2293.0 762 2340.5 805.5Q2388.0 849 2442.0 872.5Q2496.0 896 2549.0 896Q2604.0 896 2629.5 871.5Q2655.0 847 2655.0 804Q2655.0 767 2644.0 726.0Q2633.0 685 2614.5 635.0Q2596.0 585 2574.0 521.5Q2552.0 458 2530.0 374L2520.0 378Q2557.0 493 2603.5 587.5Q2650.0 682 2703.5 751.0Q2757.0 820 2815.0 858.0Q2873.0 896 2932.0 896Q2992.0 896 3020.0 851.0Q3048.0 806 3039.0 742Q3033.0 695 3013.0 662.0Q2993.0 629 2964.5 612.0Q2936.0 595 2901.0 595Q2864.0 595 2841.5 612.5Q2819.0 630 2819.0 666Q2819.0 687 2824.0 707.0Q2829.0 727 2829.0 744Q2829.0 763 2822.5 773.5Q2816.0 784 2801.0 784Q2767.0 784 2720.0 735.0Q2673.0 686 2623.0 588.5Q2573.0 491 2529.0 344Q2510.0 277 2497.0 229.5Q2484.0 182 2484.0 150Q2484.0 127 2495.5 114.0Q2507.0 101 2518.5 92.5Q2530.0 84 2530.0 74Q2530.0 59 2498.0 37.0Q2466.0 15 2412.5 -1.5Q2359.0 -18 2296.0 -18Q2257.0 -18 2240.0 -3.0Q2223.0 12 2222.5 40.5Q2222.0 69 2234.0 110L2396.0 644Q2422.0 727 2418.0 757.0Q2414.0 787 2388.0 787Q2367.0 787 2340.0 769.5Q2313.0 752 2268.0 699Q2264.0 694 2260.5 692.0Q2257.0 690 2254.0 690ZM3052.0 690Q3049.0 691 3049.5 695.0Q3050.0 699 3054.0 704Q3109.0 792 3188.0 844.0Q3267.0 896 3347.0 896Q3399.0 896 3426.0 872.5Q3453.0 849 3453.0 802Q3453.0 769 3441.0 723.0Q3429.0 677 3413.0 629.5Q3397.0 582 3383.0 542.0Q3369.0 502 3364.0 481L3358.0 483Q3412.0 599 3474.0 678.5Q3536.0 758 3599.5 805.5Q3663.0 853 3722.5 874.5Q3782.0 896 3832.0 896Q3895.0 896 3925.0 867.0Q3955.0 838 3957.0 784.5Q3959.0 731 3937.0 657L3801.0 218Q3774.0 129 3782.0 100.0Q3790.0 71 3814.0 71Q3835.0 71 3860.5 89.0Q3886.0 107 3923.0 154Q3929.0 163 3931.5 165.5Q3934.0 168 3937.0 167Q3941.0 166 3940.5 160.5Q3940.0 155 3935.0 145Q3895.0 72 3825.0 27.0Q3755.0 -18 3655.0 -18Q3597.0 -18 3568.5 3.5Q3540.0 25 3538.0 68.0Q3536.0 111 3557.0 178L3692.0 614Q3722.0 709 3711.5 742.5Q3701.0 776 3659.0 776Q3632.0 776 3590.5 752.5Q3549.0 729 3501.5 677.0Q3454.0 625 3406.5 541.5Q3359.0 458 3319.0 339Q3300.0 283 3289.0 240.0Q3278.0 197 3273.5 166.5Q3269.0 136 3269.0 118Q3269.0 99 3277.0 87.5Q3285.0 76 3285.0 58Q3285.0 25 3231.5 3.5Q3178.0 -18 3084.0 -18Q3023.0 -18 3012.0 6.5Q3001.0 31 3018.0 85L3194.0 644Q3221.0 727 3216.5 757.0Q3212.0 787 3186.0 787Q3165.0 787 3138.0 769.5Q3111.0 752 3066.0 699Q3062.0 694 3058.5 692.0Q3055.0 690 3052.0 690Z" fill="#C8161D"/></g>
</svg>
