<svg xmlns="http://www.w3.org/2000/svg" viewBox="0 0 3419.0 530.3" width="3419" height="530" role="img" aria-label="Power Over Porn">
  <g transform="translate(43.2,395.3) scale(0.30900,-0.30900)"><path d="M76 0V686H433Q507 686 556.5 658.5Q606 631 631.5 581.5Q657 532 657 464Q657 396 630.5 345.5Q604 295 553.0 267.0Q502 239 428 239H225V0ZM225 361H408Q455 361 480.5 388.0Q506 415 506 463Q506 496 495.0 518.0Q484 540 462.5 552.0Q441 564 408 564H225ZM1197.0 -12Q1088.0 -12 1009.0 27.0Q930.0 66 888.0 145.0Q846.0 224 846.0 343Q846.0 464 888.0 542.5Q930.0 621 1009.0 659.5Q1088.0 698 1197.0 698Q1308.0 698 1386.5 659.5Q1465.0 621 1507.0 542.5Q1549.0 464 1549.0 343Q1549.0 224 1507.0 145.0Q1465.0 66 1386.5 27.0Q1308.0 -12 1197.0 -12ZM1197.0 110Q1246.0 110 1283.0 124.0Q1320.0 138 1345.0 166.0Q1370.0 194 1383.0 234.5Q1396.0 275 1396.0 327V358Q1396.0 411 1383.0 452.0Q1370.0 493 1345.0 520.5Q1320.0 548 1283.0 562.0Q1246.0 576 1197.0 576Q1149.0 576 1112.0 562.0Q1075.0 548 1050.0 520.5Q1025.0 493 1012.5 452.0Q1000.0 411 1000.0 358V327Q1000.0 275 1012.5 234.5Q1025.0 194 1050.0 166.0Q1075.0 138 1112.0 124.0Q1149.0 110 1197.0 110ZM1903.0 0 1723.0 686H1881.0L1981.0 277Q1984.0 268 1987.0 250.5Q1990.0 233 1993.0 214.0Q1996.0 195 1998.0 180H2003.0Q2005.0 191 2006.5 205.0Q2008.0 219 2010.5 232.5Q2013.0 246 2015.5 258.0Q2018.0 270 2019.0 277L2112.0 686H2290.0L2385.0 277Q2388.0 267 2391.0 250.0Q2394.0 233 2397.0 214.0Q2400.0 195 2402.0 180H2407.0Q2409.0 191 2411.5 204.0Q2414.0 217 2416.5 230.5Q2419.0 244 2422.0 256.0Q2425.0 268 2427.0 277L2526.0 686H2669.0L2488.0 0H2318.0L2217.0 422Q2214.0 436 2210.5 454.5Q2207.0 473 2204.0 491.0Q2201.0 509 2199.0 523H2195.0Q2193.0 509 2190.5 490.0Q2188.0 471 2184.5 453.0Q2181.0 435 2178.0 422L2078.0 0ZM2874.0 0V686H3422.0V564H3024.0V411H3376.0V290H3024.0V123H3428.0V0ZM3677.0 0V686H4053.0Q4129.0 686 4179.5 659.0Q4230.0 632 4255.0 583.5Q4280.0 535 4280.0 472Q4280.0 405 4250.0 353.5Q4220.0 302 4163.0 275L4303.0 0H4138.0L4017.0 250H3826.0V0ZM3826.0 368H4033.0Q4078.0 368 4103.0 395.5Q4128.0 423 4128.0 470Q4128.0 500 4117.0 521.5Q4106.0 543 4085.0 554.0Q4064.0 565 4033.0 565H3826.0ZM5163.0 -12Q5054.0 -12 4975.0 27.0Q4896.0 66 4854.0 145.0Q4812.0 224 4812.0 343Q4812.0 464 4854.0 542.5Q4896.0 621 4975.0 659.5Q5054.0 698 5163.0 698Q5274.0 698 5352.5 659.5Q5431.0 621 5473.0 542.5Q5515.0 464 5515.0 343Q5515.0 224 5473.0 145.0Q5431.0 66 5352.5 27.0Q5274.0 -12 5163.0 -12ZM5163.0 110Q5212.0 110 5249.0 124.0Q5286.0 138 5311.0 166.0Q5336.0 194 5349.0 234.5Q5362.0 275 5362.0 327V358Q5362.0 411 5349.0 452.0Q5336.0 493 5311.0 520.5Q5286.0 548 5249.0 562.0Q5212.0 576 5163.0 576Q5115.0 576 5078.0 562.0Q5041.0 548 5016.0 520.5Q4991.0 493 4978.5 452.0Q4966.0 411 4966.0 358V327Q4966.0 275 4978.5 234.5Q4991.0 194 5016.0 166.0Q5041.0 138 5078.0 124.0Q5115.0 110 5163.0 110ZM5940.0 0 5692.0 686H5853.0L6001.0 248Q6005.0 237 6010.0 221.5Q6015.0 206 6020.0 191.0Q6025.0 176 6028.0 164H6034.0Q6038.0 175 6042.5 189.5Q6047.0 204 6051.5 219.0Q6056.0 234 6060.0 247L6208.0 686H6363.0L6114.0 0ZM6570.0 0V686H7118.0V564H6720.0V411H7072.0V290H6720.0V123H7124.0V0ZM7373.0 0V686H7749.0Q7825.0 686 7875.5 659.0Q7926.0 632 7951.0 583.5Q7976.0 535 7976.0 472Q7976.0 405 7946.0 353.5Q7916.0 302 7859.0 275L7999.0 0H7834.0L7713.0 250H7522.0V0ZM7522.0 368H7729.0Q7774.0 368 7799.0 395.5Q7824.0 423 7824.0 470Q7824.0 500 7813.0 521.5Q7802.0 543 7781.0 554.0Q7760.0 565 7729.0 565H7522.0Z" fill="#0C0A0B"/></g>
  <g transform="translate(2654.2,395.3) scale(0.18000,-0.18000)"><path d="M1328 961Q1315 854 1264.5 767.5Q1214 681 1132.5 619.5Q1051 558 943.0 525.0Q835 492 705 492Q620 492 568.5 507.0Q517 522 467 548L473 562Q531 534 577.0 524.5Q623 515 671 515Q774 515 855.5 563.5Q937 612 994.0 713.5Q1051 815 1078 973Q1103 1121 1079.0 1211.0Q1055 1301 996.0 1342.0Q937 1383 856 1383Q807 1383 776.5 1364.5Q746 1346 734 1307Q728 1291 708.5 1219.0Q689 1147 659.5 1038.5Q630 930 596.0 804.5Q562 679 529.0 553.5Q496 428 467.5 322.0Q439 216 421.5 148.0Q404 80 401 69Q397 53 403.0 42.0Q409 31 426 29L560 17Q567 16 570.5 14.0Q574 12 574 8Q574 4 570.5 2.0Q567 0 560 0H-14Q-19 0 -22.0 1.5Q-25 3 -25 7Q-25 10 -22.5 12.5Q-20 15 -13 16L77 27Q98 29 108.5 41.0Q119 53 127 74Q130 84 149.0 153.0Q168 222 197.5 329.5Q227 437 262.5 564.5Q298 692 332.5 820.0Q367 948 397.0 1057.5Q427 1167 446.0 1238.5Q465 1310 467 1323Q472 1345 465.0 1357.0Q458 1369 436 1372L347 1384Q338 1385 335.5 1387.5Q333 1390 333 1393Q333 1397 336.5 1398.5Q340 1400 347 1400H903Q1008 1400 1092.0 1369.0Q1176 1338 1233.0 1280.5Q1290 1223 1315.5 1142.0Q1341 1061 1328 961ZM1816.0 900Q1928.0 898 2006.5 846.0Q2085.0 794 2121.5 699.5Q2158.0 605 2141.0 477Q2128.0 374 2086.0 284.5Q2044.0 195 1975.5 127.0Q1907.0 59 1816.5 20.5Q1726.0 -18 1617.0 -18Q1513.0 -18 1432.0 31.0Q1351.0 80 1311.5 173.0Q1272.0 266 1288.0 397Q1303.0 509 1348.0 601.5Q1393.0 694 1463.0 762.0Q1533.0 830 1623.0 866.0Q1713.0 902 1816.0 900ZM1618.0 7Q1655.0 7 1694.5 48.5Q1734.0 90 1771.0 158.5Q1808.0 227 1838.5 311.0Q1869.0 395 1889.5 482.0Q1910.0 569 1916.0 646Q1927.0 728 1917.0 777.5Q1907.0 827 1882.5 850.0Q1858.0 873 1824.0 875Q1785.0 876 1744.0 836.0Q1703.0 796 1664.5 727.5Q1626.0 659 1594.0 574.0Q1562.0 489 1540.5 399.5Q1519.0 310 1512.0 229Q1502.0 144 1513.5 95.5Q1525.0 47 1553.0 27.0Q1581.0 7 1618.0 7ZM2254.0 690Q2251.0 691 2251.5 694.0Q2252.0 697 2256.0 704Q2293.0 762 2340.5 805.5Q2388.0 849 2442.0 872.5Q2496.0 896 2549.0 896Q2604.0 896 2629.5 871.5Q2655.0 847 2655.0 804Q2655.0 767 2644.0 726.0Q2633.0 685 2614.5 635.0Q2596.0 585 2574.0 521.5Q2552.0 458 2530.0 374L2520.0 378Q2557.0 493 2603.5 587.5Q2650.0 682 2703.5 751.0Q2757.0 820 2815.0 858.0Q2873.0 896 2932.0 896Q2992.0 896 3020.0 851.0Q3048.0 806 3039.0 742Q3033.0 695 3013.0 662.0Q2993.0 629 2964.5 612.0Q2936.0 595 2901.0 595Q2864.0 595 2841.5 612.5Q2819.0 630 2819.0 666Q2819.0 687 2824.0 707.0Q2829.0 727 2829.0 744Q2829.0 763 2822.5 773.5Q2816.0 784 2801.0 784Q2767.0 784 2720.0 735.0Q2673.0 686 2623.0 588.5Q2573.0 491 2529.0 344Q2510.0 277 2497.0 229.5Q2484.0 182 2484.0 150Q2484.0 127 2495.5 114.0Q2507.0 101 2518.5 92.5Q2530.0 84 2530.0 74Q2530.0 59 2498.0 37.0Q2466.0 15 2412.5 -1.5Q2359.0 -18 2296.0 -18Q2257.0 -18 2240.0 -3.0Q2223.0 12 2222.5 40.5Q2222.0 69 2234.0 110L2396.0 644Q2422.0 727 2418.0 757.0Q2414.0 787 2388.0 787Q2367.0 787 2340.0 769.5Q2313.0 752 2268.0 699Q2264.0 694 2260.5 692.0Q2257.0 690 2254.0 690ZM3052.0 690Q3049.0 691 3049.5 695.0Q3050.0 699 3054.0 704Q3109.0 792 3188.0 844.0Q3267.0 896 3347.0 896Q3399.0 896 3426.0 872.5Q3453.0 849 3453.0 802Q3453.0 769 3441.0 723.0Q3429.0 677 3413.0 629.5Q3397.0 582 3383.0 542.0Q3369.0 502 3364.0 481L3358.0 483Q3412.0 599 3474.0 678.5Q3536.0 758 3599.5 805.5Q3663.0 853 3722.5 874.5Q3782.0 896 3832.0 896Q3895.0 896 3925.0 867.0Q3955.0 838 3957.0 784.5Q3959.0 731 3937.0 657L3801.0 218Q3774.0 129 3782.0 100.0Q3790.0 71 3814.0 71Q3835.0 71 3860.5 89.0Q3886.0 107 3923.0 154Q3929.0 163 3931.5 165.5Q3934.0 168 3937.0 167Q3941.0 166 3940.5 160.5Q3940.0 155 3935.0 145Q3895.0 72 3825.0 27.0Q3755.0 -18 3655.0 -18Q3597.0 -18 3568.5 3.5Q3540.0 25 3538.0 68.0Q3536.0 111 3557.0 178L3692.0 614Q3722.0 709 3711.5 742.5Q3701.0 776 3659.0 776Q3632.0 776 3590.5 752.5Q3549.0 729 3501.5 677.0Q3454.0 625 3406.5 541.5Q3359.0 458 3319.0 339Q3300.0 283 3289.0 240.0Q3278.0 197 3273.5 166.5Q3269.0 136 3269.0 118Q3269.0 99 3277.0 87.5Q3285.0 76 3285.0 58Q3285.0 25 3231.5 3.5Q3178.0 -18 3084.0 -18Q3023.0 -18 3012.0 6.5Q3001.0 31 3018.0 85L3194.0 644Q3221.0 727 3216.5 757.0Q3212.0 787 3186.0 787Q3165.0 787 3138.0 769.5Q3111.0 752 3066.0 699Q3062.0 694 3058.5 692.0Q3055.0 690 3052.0 690Z" fill="#C8161D"/></g>
</svg>
