<svg xmlns="http://www.w3.org/2000/svg" viewBox="0 0 2609.1 464.1" width="2609" height="464" role="img" aria-label="Power Over Porn">
  <g transform="translate(36.0,347.0) scale(0.30000,-0.30000)"><path d="M75 0V687H453Q523 687 572.5 658.5Q622 630 648.5 579.5Q675 529 675 461Q675 391 647.5 340.0Q620 289 569.5 260.5Q519 232 449 232H254V0ZM254 370H407Q449 370 471.0 393.5Q493 417 493 459Q493 489 483.5 508.0Q474 527 455.0 537.5Q436 548 407 548H254ZM1163.0 -12Q1050.0 -12 969.5 27.5Q889.0 67 846.0 146.0Q803.0 225 803.0 344Q803.0 463 846.0 541.5Q889.0 620 969.5 659.5Q1050.0 699 1163.0 699Q1276.0 699 1356.5 659.5Q1437.0 620 1480.0 541.5Q1523.0 463 1523.0 344Q1523.0 225 1480.0 146.0Q1437.0 67 1356.5 27.5Q1276.0 -12 1163.0 -12ZM1163.0 128Q1206.0 128 1239.0 141.0Q1272.0 154 1294.5 179.0Q1317.0 204 1328.0 240.0Q1339.0 276 1339.0 321V365Q1339.0 411 1328.0 447.0Q1317.0 483 1294.5 508.0Q1272.0 533 1239.0 546.0Q1206.0 559 1163.0 559Q1119.0 559 1086.0 546.0Q1053.0 533 1031.0 508.0Q1009.0 483 998.0 447.0Q987.0 411 987.0 365V321Q987.0 276 998.0 240.0Q1009.0 204 1031.0 179.0Q1053.0 154 1086.0 141.0Q1119.0 128 1163.0 128ZM1808.0 0 1635.0 687H1823.0L1907.0 326Q1909.0 317 1912.0 300.0Q1915.0 283 1918.5 264.0Q1922.0 245 1925.0 229H1929.0Q1931.0 239 1933.0 252.5Q1935.0 266 1937.5 279.5Q1940.0 293 1942.5 305.0Q1945.0 317 1946.0 326L2025.0 687H2220.0L2301.0 326Q2304.0 316 2307.0 299.0Q2310.0 282 2313.5 263.0Q2317.0 244 2320.0 229H2324.0Q2326.0 240 2328.5 252.5Q2331.0 265 2333.5 278.5Q2336.0 292 2338.5 304.0Q2341.0 316 2343.0 326L2424.0 687H2600.0L2427.0 0H2227.0L2139.0 380Q2137.0 394 2133.0 412.0Q2129.0 430 2125.5 448.0Q2122.0 466 2120.0 480H2116.0Q2114.0 466 2111.0 448.0Q2108.0 430 2104.5 412.0Q2101.0 394 2098.0 380L2011.0 0ZM2744.0 0V687H3311.0V547H2923.0V418H3262.0V281H2923.0V140H3318.0V0ZM3501.0 0V687H3900.0Q3976.0 687 4027.0 658.5Q4078.0 630 4103.5 580.5Q4129.0 531 4129.0 470Q4129.0 404 4098.5 352.5Q4068.0 301 4013.0 272L4151.0 0H3951.0L3837.0 242H3680.0V0ZM3680.0 375H3865.0Q3902.0 375 3924.5 399.5Q3947.0 424 3947.0 465Q3947.0 492 3937.0 511.0Q3927.0 530 3909.0 540.5Q3891.0 551 3865.0 551H3680.0Z" fill="#F4EFEA"/></g>
  <g transform="translate(1348.8,347.0) scale(0.18000,-0.18000)"><path d="M278 -12Q202 -12 148.5 17.5Q95 47 67.5 108.0Q40 169 40 263Q40 358 67.5 418.5Q95 479 148.5 508.5Q202 538 278 538Q356 538 408.5 508.5Q461 479 488.5 418.5Q516 358 516 263Q516 169 488.5 108.0Q461 47 408.5 17.5Q356 -12 278 -12ZM278 49Q331 49 367.0 70.0Q403 91 422.0 135.5Q441 180 441 251V275Q441 346 422.0 390.5Q403 435 367.0 456.0Q331 477 278 477Q225 477 189.0 456.0Q153 435 134.0 390.5Q115 346 115 275V251Q115 180 134.0 135.5Q153 91 189.0 70.0Q225 49 278 49ZM1107.0 0 912.0 526H988.0L1089.0 251Q1096.0 231 1105.5 202.5Q1115.0 174 1124.5 145.0Q1134.0 116 1141.0 94H1146.0Q1153.0 116 1162.5 144.5Q1172.0 173 1182.0 202.0Q1192.0 231 1199.0 251L1299.0 526H1372.0L1177.0 0ZM2002.0 -12Q1927.0 -12 1875.0 17.5Q1823.0 47 1796.0 108.0Q1769.0 169 1769.0 263Q1769.0 358 1796.0 418.5Q1823.0 479 1876.0 508.5Q1929.0 538 2008.0 538Q2081.0 538 2130.5 509.0Q2180.0 480 2205.5 425.0Q2231.0 370 2231.0 290V244H1844.0Q1844.0 175 1863.0 131.0Q1882.0 87 1917.5 67.5Q1953.0 48 2005.0 48Q2043.0 48 2071.5 58.0Q2100.0 68 2118.5 85.5Q2137.0 103 2147.0 127.0Q2157.0 151 2157.0 177H2227.0Q2227.0 138 2212.5 103.5Q2198.0 69 2170.5 43.0Q2143.0 17 2101.0 2.5Q2059.0 -12 2002.0 -12ZM1844.0 301H2156.0Q2156.0 351 2144.5 384.5Q2133.0 418 2113.0 438.5Q2093.0 459 2065.5 468.0Q2038.0 477 2004.0 477Q1955.0 477 1920.0 458.5Q1885.0 440 1866.5 401.0Q1848.0 362 1844.0 301ZM2680.0 0V526H2738.0L2744.0 438H2751.0Q2758.0 462 2772.0 485.0Q2786.0 508 2810.0 523.0Q2834.0 538 2871.0 538Q2885.0 538 2897.0 535.5Q2909.0 533 2915.0 531V465H2884.0Q2849.0 465 2824.0 452.5Q2799.0 440 2783.0 417.0Q2767.0 394 2759.5 364.5Q2752.0 335 2752.0 303V0Z" fill="#F4EFEA"/></g>
  <g transform="translate(1935.7,347.0) scale(0.15900,-0.15900)"><path d="M1328 961Q1315 854 1264.5 767.5Q1214 681 1132.5 619.5Q1051 558 943.0 525.0Q835 492 705 492Q620 492 568.5 507.0Q517 522 467 548L473 562Q531 534 577.0 524.5Q623 515 671 515Q774 515 855.5 563.5Q937 612 994.0 713.5Q1051 815 1078 973Q1103 1121 1079.0 1211.0Q1055 1301 996.0 1342.0Q937 1383 856 1383Q807 1383 776.5 1364.5Q746 1346 734 1307Q728 1291 708.5 1219.0Q689 1147 659.5 1038.5Q630 930 596.0 804.5Q562 679 529.0 553.5Q496 428 467.5 322.0Q439 216 421.5 148.0Q404 80 401 69Q397 53 403.0 42.0Q409 31 426 29L560 17Q567 16 570.5 14.0Q574 12 574 8Q574 4 570.5 2.0Q567 0 560 0H-14Q-19 0 -22.0 1.5Q-25 3 -25 7Q-25 10 -22.5 12.5Q-20 15 -13 16L77 27Q98 29 108.5 41.0Q119 53 127 74Q130 84 149.0 153.0Q168 222 197.5 329.5Q227 437 262.5 564.5Q298 692 332.5 820.0Q367 948 397.0 1057.5Q427 1167 446.0 1238.5Q465 1310 467 1323Q472 1345 465.0 1357.0Q458 1369 436 1372L347 1384Q338 1385 335.5 1387.5Q333 1390 333 1393Q333 1397 336.5 1398.5Q340 1400 347 1400H903Q1008 1400 1092.0 1369.0Q1176 1338 1233.0 1280.5Q1290 1223 1315.5 1142.0Q1341 1061 1328 961ZM1816.0 900Q1928.0 898 2006.5 846.0Q2085.0 794 2121.5 699.5Q2158.0 605 2141.0 477Q2128.0 374 2086.0 284.5Q2044.0 195 1975.5 127.0Q1907.0 59 1816.5 20.5Q1726.0 -18 1617.0 -18Q1513.0 -18 1432.0 31.0Q1351.0 80 1311.5 173.0Q1272.0 266 1288.0 397Q1303.0 509 1348.0 601.5Q1393.0 694 1463.0 762.0Q1533.0 830 1623.0 866.0Q1713.0 902 1816.0 900ZM1618.0 7Q1655.0 7 1694.5 48.5Q1734.0 90 1771.0 158.5Q1808.0 227 1838.5 311.0Q1869.0 395 1889.5 482.0Q1910.0 569 1916.0 646Q1927.0 728 1917.0 777.5Q1907.0 827 1882.5 850.0Q1858.0 873 1824.0 875Q1785.0 876 1744.0 836.0Q1703.0 796 1664.5 727.5Q1626.0 659 1594.0 574.0Q1562.0 489 1540.5 399.5Q1519.0 310 1512.0 229Q1502.0 144 1513.5 95.5Q1525.0 47 1553.0 27.0Q1581.0 7 1618.0 7ZM2254.0 690Q2251.0 691 2251.5 694.0Q2252.0 697 2256.0 704Q2293.0 762 2340.5 805.5Q2388.0 849 2442.0 872.5Q2496.0 896 2549.0 896Q2604.0 896 2629.5 871.5Q2655.0 847 2655.0 804Q2655.0 767 2644.0 726.0Q2633.0 685 2614.5 635.0Q2596.0 585 2574.0 521.5Q2552.0 458 2530.0 374L2520.0 378Q2557.0 493 2603.5 587.5Q2650.0 682 2703.5 751.0Q2757.0 820 2815.0 858.0Q2873.0 896 2932.0 896Q2992.0 896 3020.0 851.0Q3048.0 806 3039.0 742Q3033.0 695 3013.0 662.0Q2993.0 629 2964.5 612.0Q2936.0 595 2901.0 595Q2864.0 595 2841.5 612.5Q2819.0 630 2819.0 666Q2819.0 687 2824.0 707.0Q2829.0 727 2829.0 744Q2829.0 763 2822.5 773.5Q2816.0 784 2801.0 784Q2767.0 784 2720.0 735.0Q2673.0 686 2623.0 588.5Q2573.0 491 2529.0 344Q2510.0 277 2497.0 229.5Q2484.0 182 2484.0 150Q2484.0 127 2495.5 114.0Q2507.0 101 2518.5 92.5Q2530.0 84 2530.0 74Q2530.0 59 2498.0 37.0Q2466.0 15 2412.5 -1.5Q2359.0 -18 2296.0 -18Q2257.0 -18 2240.0 -3.0Q2223.0 12 2222.5 40.5Q2222.0 69 2234.0 110L2396.0 644Q2422.0 727 2418.0 757.0Q2414.0 787 2388.0 787Q2367.0 787 2340.0 769.5Q2313.0 752 2268.0 699Q2264.0 694 2260.5 692.0Q2257.0 690 2254.0 690ZM3052.0 690Q3049.0 691 3049.5 695.0Q3050.0 699 3054.0 704Q3109.0 792 3188.0 844.0Q3267.0 896 3347.0 896Q3399.0 896 3426.0 872.5Q3453.0 849 3453.0 802Q3453.0 769 3441.0 723.0Q3429.0 677 3413.0 629.5Q3397.0 582 3383.0 542.0Q3369.0 502 3364.0 481L3358.0 483Q3412.0 599 3474.0 678.5Q3536.0 758 3599.5 805.5Q3663.0 853 3722.5 874.5Q3782.0 896 3832.0 896Q3895.0 896 3925.0 867.0Q3955.0 838 3957.0 784.5Q3959.0 731 3937.0 657L3801.0 218Q3774.0 129 3782.0 100.0Q3790.0 71 3814.0 71Q3835.0 71 3860.5 89.0Q3886.0 107 3923.0 154Q3929.0 163 3931.5 165.5Q3934.0 168 3937.0 167Q3941.0 166 3940.5 160.5Q3940.0 155 3935.0 145Q3895.0 72 3825.0 27.0Q3755.0 -18 3655.0 -18Q3597.0 -18 3568.5 3.5Q3540.0 25 3538.0 68.0Q3536.0 111 3557.0 178L3692.0 614Q3722.0 709 3711.5 742.5Q3701.0 776 3659.0 776Q3632.0 776 3590.5 752.5Q3549.0 729 3501.5 677.0Q3454.0 625 3406.5 541.5Q3359.0 458 3319.0 339Q3300.0 283 3289.0 240.0Q3278.0 197 3273.5 166.5Q3269.0 136 3269.0 118Q3269.0 99 3277.0 87.5Q3285.0 76 3285.0 58Q3285.0 25 3231.5 3.5Q3178.0 -18 3084.0 -18Q3023.0 -18 3012.0 6.5Q3001.0 31 3018.0 85L3194.0 644Q3221.0 727 3216.5 757.0Q3212.0 787 3186.0 787Q3165.0 787 3138.0 769.5Q3111.0 752 3066.0 699Q3062.0 694 3058.5 692.0Q3055.0 690 3052.0 690Z" fill="#E8242B"/></g>
</svg>
