<svg xmlns="http://www.w3.org/2000/svg" viewBox="0 0 3023.6 589.2" width="3024" height="589" role="img" aria-label="Power Over Porn">
  <g transform="translate(48.0,439.2) scale(0.20000,-0.20000)"><path d="M1342.0 850Q1342.0 715 1276.0 616.5Q1210.0 518 1093.0 465.0Q976.0 412 824.0 412Q690.0 412 611.5 440.0Q533.0 468 470.0 517L474.0 538Q520.0 506 554.5 486.5Q589.0 467 621.0 458.5Q653.0 450 689.0 450Q748.0 450 802.0 493.0Q856.0 536 891.0 626.0Q926.0 716 926.0 857Q926.0 1028 887.0 1143.5Q848.0 1259 784.0 1317.5Q720.0 1376 646.0 1376H608.0V61Q608.0 47 619.5 40.0Q631.0 33 654.0 28L714.0 17Q720.0 16 723.0 14.0Q726.0 12 726.0 8Q726.0 5 723.5 2.5Q721.0 0 715.0 0H74.0Q68.0 0 65.0 2.5Q62.0 5 62.0 9Q62.0 15 76.0 18L137.0 29Q159.0 33 169.5 40.5Q180.0 48 180.0 58V1335Q180.0 1349 169.5 1358.0Q159.0 1367 138.0 1371L73.0 1383Q62.0 1385 62.0 1391Q62.0 1396 64.5 1398.0Q67.0 1400 73.0 1400H646.0Q855.0 1400 1011.5 1331.0Q1168.0 1262 1255.0 1138.0Q1342.0 1014 1342.0 850ZM1902.0 916Q2045.0 916 2154.5 856.0Q2264.0 796 2326.0 689.5Q2388.0 583 2388.0 444Q2388.0 308 2323.5 203.5Q2259.0 99 2146.0 39.5Q2033.0 -20 1886.0 -20Q1743.0 -20 1633.5 39.0Q1524.0 98 1462.0 202.5Q1400.0 307 1400.0 444Q1400.0 580 1465.5 686.5Q1531.0 793 1644.5 854.5Q1758.0 916 1902.0 916ZM1959.0 0Q1995.0 5 2012.5 56.0Q2030.0 107 2029.0 208.0Q2028.0 309 2006.0 462Q1984.0 615 1957.5 712.5Q1931.0 810 1900.0 854.5Q1869.0 899 1832.0 893Q1797.0 887 1779.5 836.0Q1762.0 785 1764.0 685.0Q1766.0 585 1787.0 432Q1809.0 279 1835.0 181.5Q1861.0 84 1892.0 39.5Q1923.0 -5 1959.0 0ZM2946.0 0H2793.0Q2784.0 0 2778.0 3.5Q2772.0 7 2769.0 16L2490.0 840Q2486.0 853 2479.5 860.0Q2473.0 867 2462.0 870L2424.0 879Q2417.0 881 2414.5 883.0Q2412.0 885 2412.0 888Q2412.0 893 2415.0 894.5Q2418.0 896 2422.0 896H2956.0Q2961.0 896 2963.5 894.5Q2966.0 893 2966.0 888Q2966.0 885 2963.5 883.0Q2961.0 881 2954.0 879L2906.0 870Q2884.0 866 2879.0 851.5Q2874.0 837 2881.0 816L3047.0 304L2968.0 92L3174.0 770L3197.0 764L2968.0 14Q2966.0 7 2960.0 3.5Q2954.0 0 2946.0 0ZM3550.0 0H3397.0Q3388.0 0 3382.0 3.5Q3376.0 7 3373.0 16L3101.0 840Q3095.0 859 3089.0 866.0Q3083.0 873 3076.0 874L3055.0 879Q3048.0 881 3045.5 883.0Q3043.0 885 3043.0 888Q3043.0 896 3053.0 896H3587.0Q3597.0 896 3597.0 888Q3597.0 885 3594.5 883.0Q3592.0 881 3585.0 879L3534.0 867Q3498.0 859 3491.0 849.0Q3484.0 839 3491.0 816L3652.0 302L3571.0 92L3775.0 770Q3787.0 809 3774.0 836.0Q3761.0 863 3728.0 870L3690.0 879Q3683.0 881 3680.5 883.0Q3678.0 885 3678.0 888Q3678.0 893 3681.0 894.5Q3684.0 896 3688.0 896H3906.0Q3911.0 896 3913.5 894.5Q3916.0 893 3916.0 888Q3916.0 885 3913.5 883.0Q3911.0 881 3904.0 879L3881.0 870Q3856.0 860 3833.0 832.0Q3810.0 804 3798.0 764L3572.0 14Q3570.0 7 3564.0 3.5Q3558.0 0 3550.0 0ZM4825.0 496Q4825.0 486 4818.5 479.0Q4812.0 472 4797.0 472H4171.0V496H4449.0Q4467.0 496 4467.0 518Q4467.0 719 4430.5 806.5Q4394.0 894 4355.0 894Q4328.0 894 4305.0 865.5Q4282.0 837 4267.5 767.0Q4253.0 697 4253.0 574Q4253.0 367 4336.0 272.5Q4419.0 178 4557.0 178Q4668.0 178 4737.5 233.5Q4807.0 289 4807.0 382Q4807.0 387 4809.5 388.5Q4812.0 390 4813.0 390Q4816.0 390 4818.5 388.0Q4821.0 386 4821.0 380Q4821.0 266 4763.5 175.5Q4706.0 85 4607.0 32.5Q4508.0 -20 4383.0 -20Q4247.0 -20 4142.0 38.0Q4037.0 96 3977.0 199.0Q3917.0 302 3917.0 436Q3917.0 586 3976.0 693.5Q4035.0 801 4143.5 858.5Q4252.0 916 4399.0 916Q4530.0 916 4625.5 861.0Q4721.0 806 4773.0 711.0Q4825.0 616 4825.0 496ZM5301.0 540Q5301.0 664 5340.5 747.5Q5380.0 831 5442.0 873.5Q5504.0 916 5571.0 916Q5653.0 916 5696.0 862.0Q5739.0 808 5739.0 698Q5739.0 590 5688.0 538.0Q5637.0 486 5560.0 486Q5489.0 486 5457.0 524.5Q5425.0 563 5421.0 636L5419.0 674Q5418.0 696 5410.0 710.0Q5402.0 724 5381.0 724Q5362.0 724 5347.5 704.0Q5333.0 684 5325.0 641.0Q5317.0 598 5317.0 530ZM5317.0 894V586V74Q5317.0 61 5324.0 50.0Q5331.0 39 5343.0 36L5441.0 16Q5447.0 15 5449.0 13.0Q5451.0 11 5451.0 8Q5451.0 4 5448.0 2.0Q5445.0 0 5439.0 0H4893.0Q4887.0 0 4884.0 2.5Q4881.0 5 4881.0 8Q4881.0 11 4885.0 14.0Q4889.0 17 4895.0 18L4931.0 26Q4945.0 29 4950.0 37.5Q4955.0 46 4955.0 58V782Q4955.0 791 4951.5 796.5Q4948.0 802 4939.0 802H4895.0Q4891.0 802 4888.0 804.5Q4885.0 807 4885.0 810Q4885.0 813 4888.0 816.0Q4891.0 819 4897.0 820L5277.0 906Q5286.0 908 5291.5 909.0Q5297.0 910 5303.0 910Q5311.0 910 5314.0 905.0Q5317.0 900 5317.0 894ZM6775.0 1420Q6942.0 1420 7076.0 1369.0Q7210.0 1318 7305.0 1224.0Q7400.0 1130 7450.5 999.5Q7501.0 869 7501.0 710Q7501.0 547 7452.0 412.5Q7403.0 278 7312.0 181.5Q7221.0 85 7094.5 32.5Q6968.0 -20 6814.0 -20Q6647.0 -20 6513.0 30.5Q6379.0 81 6284.5 176.0Q6190.0 271 6139.5 405.5Q6089.0 540 6089.0 708Q6089.0 864 6139.0 994.5Q6189.0 1125 6281.0 1220.0Q6373.0 1315 6498.5 1367.5Q6624.0 1420 6775.0 1420ZM7071.0 376Q7071.0 525 7049.0 671.5Q7027.0 818 6989.5 947.5Q6952.0 1077 6902.5 1177.0Q6853.0 1277 6798.0 1334.0Q6743.0 1391 6687.0 1391Q6633.0 1391 6595.5 1351.5Q6558.0 1312 6538.5 1234.5Q6519.0 1157 6519.0 1044Q6519.0 891 6540.5 741.5Q6562.0 592 6600.0 460.0Q6638.0 328 6686.5 226.5Q6735.0 125 6790.5 67.0Q6846.0 9 6902.0 9Q6961.0 9 6998.5 47.0Q7036.0 85 7053.5 166.0Q7071.0 247 7071.0 376ZM8107.0 0H7949.0Q7940.0 0 7934.0 3.5Q7928.0 7 7925.0 16L7615.0 840Q7610.0 854 7603.5 861.0Q7597.0 868 7587.0 870L7549.0 879Q7542.0 881 7539.5 883.0Q7537.0 885 7537.0 888Q7537.0 893 7540.0 894.5Q7543.0 896 7547.0 896H8098.0Q8108.0 896 8108.0 888Q8108.0 885 8105.5 883.0Q8103.0 881 8096.0 879L8048.0 870Q8003.0 862 7993.5 850.0Q7984.0 838 7992.0 816L8200.0 245L8128.0 92L8352.0 770Q8366.0 811 8350.5 837.0Q8335.0 863 8299.0 870L8251.0 879Q8244.0 881 8241.5 883.0Q8239.0 885 8239.0 888Q8239.0 893 8242.0 894.5Q8245.0 896 8249.0 896H8495.0Q8500.0 896 8502.5 894.5Q8505.0 893 8505.0 888Q8505.0 885 8502.5 883.0Q8500.0 881 8493.0 879L8468.0 873Q8434.0 865 8413.5 842.5Q8393.0 820 8375.0 764L8129.0 14Q8127.0 7 8121.0 3.5Q8115.0 0 8107.0 0ZM9405.0 496Q9405.0 486 9398.5 479.0Q9392.0 472 9377.0 472H8751.0V496H9029.0Q9047.0 496 9047.0 518Q9047.0 719 9010.5 806.5Q8974.0 894 8935.0 894Q8908.0 894 8885.0 865.5Q8862.0 837 8847.5 767.0Q8833.0 697 8833.0 574Q8833.0 367 8916.0 272.5Q8999.0 178 9137.0 178Q9248.0 178 9317.5 233.5Q9387.0 289 9387.0 382Q9387.0 387 9389.5 388.5Q9392.0 390 9393.0 390Q9396.0 390 9398.5 388.0Q9401.0 386 9401.0 380Q9401.0 266 9343.5 175.5Q9286.0 85 9187.0 32.5Q9088.0 -20 8963.0 -20Q8827.0 -20 8722.0 38.0Q8617.0 96 8557.0 199.0Q8497.0 302 8497.0 436Q8497.0 586 8556.0 693.5Q8615.0 801 8723.5 858.5Q8832.0 916 8979.0 916Q9110.0 916 9205.5 861.0Q9301.0 806 9353.0 711.0Q9405.0 616 9405.0 496ZM9881.0 540Q9881.0 664 9920.5 747.5Q9960.0 831 10022.0 873.5Q10084.0 916 10151.0 916Q10233.0 916 10276.0 862.0Q10319.0 808 10319.0 698Q10319.0 590 10268.0 538.0Q10217.0 486 10140.0 486Q10069.0 486 10037.0 524.5Q10005.0 563 10001.0 636L9999.0 674Q9998.0 696 9990.0 710.0Q9982.0 724 9961.0 724Q9942.0 724 9927.5 704.0Q9913.0 684 9905.0 641.0Q9897.0 598 9897.0 530ZM9897.0 894V586V74Q9897.0 61 9904.0 50.0Q9911.0 39 9923.0 36L10021.0 16Q10027.0 15 10029.0 13.0Q10031.0 11 10031.0 8Q10031.0 4 10028.0 2.0Q10025.0 0 10019.0 0H9473.0Q9467.0 0 9464.0 2.5Q9461.0 5 9461.0 8Q9461.0 11 9465.0 14.0Q9469.0 17 9475.0 18L9511.0 26Q9525.0 29 9530.0 37.5Q9535.0 46 9535.0 58V782Q9535.0 791 9531.5 796.5Q9528.0 802 9519.0 802H9475.0Q9471.0 802 9468.0 804.5Q9465.0 807 9465.0 810Q9465.0 813 9468.0 816.0Q9471.0 819 9477.0 820L9857.0 906Q9866.0 908 9871.5 909.0Q9877.0 910 9883.0 910Q9891.0 910 9894.0 905.0Q9897.0 900 9897.0 894Z" fill="#F4EFEA"/></g>
  <g transform="translate(2173.8,439.2) scale(0.20000,-0.20000)"><path d="M1328.0 961Q1315.0 854 1264.5 767.5Q1214.0 681 1132.5 619.5Q1051.0 558 943.0 525.0Q835.0 492 705.0 492Q620.0 492 568.5 507.0Q517.0 522 467.0 548L473.0 562Q531.0 534 577.0 524.5Q623.0 515 671.0 515Q774.0 515 855.5 563.5Q937.0 612 994.0 713.5Q1051.0 815 1078.0 973Q1103.0 1121 1079.0 1211.0Q1055.0 1301 996.0 1342.0Q937.0 1383 856.0 1383Q807.0 1383 776.5 1364.5Q746.0 1346 734.0 1307Q728.0 1291 708.5 1219.0Q689.0 1147 659.5 1038.5Q630.0 930 596.0 804.5Q562.0 679 529.0 553.5Q496.0 428 467.5 322.0Q439.0 216 421.5 148.0Q404.0 80 401.0 69Q397.0 53 403.0 42.0Q409.0 31 426.0 29L560.0 17Q567.0 16 570.5 14.0Q574.0 12 574.0 8Q574.0 4 570.5 2.0Q567.0 0 560.0 0H-14.0Q-19.0 0 -22.0 1.5Q-25.0 3 -25.0 7Q-25.0 10 -22.5 12.5Q-20.0 15 -13.0 16L77.0 27Q98.0 29 108.5 41.0Q119.0 53 127.0 74Q130.0 84 149.0 153.0Q168.0 222 197.5 329.5Q227.0 437 262.5 564.5Q298.0 692 332.5 820.0Q367.0 948 397.0 1057.5Q427.0 1167 446.0 1238.5Q465.0 1310 467.0 1323Q472.0 1345 465.0 1357.0Q458.0 1369 436.0 1372L347.0 1384Q338.0 1385 335.5 1387.5Q333.0 1390 333.0 1393Q333.0 1397 336.5 1398.5Q340.0 1400 347.0 1400H903.0Q1008.0 1400 1092.0 1369.0Q1176.0 1338 1233.0 1280.5Q1290.0 1223 1315.5 1142.0Q1341.0 1061 1328.0 961ZM1816.0 900Q1928.0 898 2006.5 846.0Q2085.0 794 2121.5 699.5Q2158.0 605 2141.0 477Q2128.0 374 2086.0 284.5Q2044.0 195 1975.5 127.0Q1907.0 59 1816.5 20.5Q1726.0 -18 1617.0 -18Q1513.0 -18 1432.0 31.0Q1351.0 80 1311.5 173.0Q1272.0 266 1288.0 397Q1303.0 509 1348.0 601.5Q1393.0 694 1463.0 762.0Q1533.0 830 1623.0 866.0Q1713.0 902 1816.0 900ZM1618.0 7Q1655.0 7 1694.5 48.5Q1734.0 90 1771.0 158.5Q1808.0 227 1838.5 311.0Q1869.0 395 1889.5 482.0Q1910.0 569 1916.0 646Q1927.0 728 1917.0 777.5Q1907.0 827 1882.5 850.0Q1858.0 873 1824.0 875Q1785.0 876 1744.0 836.0Q1703.0 796 1664.5 727.5Q1626.0 659 1594.0 574.0Q1562.0 489 1540.5 399.5Q1519.0 310 1512.0 229Q1502.0 144 1513.5 95.5Q1525.0 47 1553.0 27.0Q1581.0 7 1618.0 7ZM2254.0 690Q2251.0 691 2251.5 694.0Q2252.0 697 2256.0 704Q2293.0 762 2340.5 805.5Q2388.0 849 2442.0 872.5Q2496.0 896 2549.0 896Q2604.0 896 2629.5 871.5Q2655.0 847 2655.0 804Q2655.0 767 2644.0 726.0Q2633.0 685 2614.5 635.0Q2596.0 585 2574.0 521.5Q2552.0 458 2530.0 374L2520.0 378Q2557.0 493 2603.5 587.5Q2650.0 682 2703.5 751.0Q2757.0 820 2815.0 858.0Q2873.0 896 2932.0 896Q2992.0 896 3020.0 851.0Q3048.0 806 3039.0 742Q3033.0 695 3013.0 662.0Q2993.0 629 2964.5 612.0Q2936.0 595 2901.0 595Q2864.0 595 2841.5 612.5Q2819.0 630 2819.0 666Q2819.0 687 2824.0 707.0Q2829.0 727 2829.0 744Q2829.0 763 2822.5 773.5Q2816.0 784 2801.0 784Q2767.0 784 2720.0 735.0Q2673.0 686 2623.0 588.5Q2573.0 491 2529.0 344Q2510.0 277 2497.0 229.5Q2484.0 182 2484.0 150Q2484.0 127 2495.5 114.0Q2507.0 101 2518.5 92.5Q2530.0 84 2530.0 74Q2530.0 59 2498.0 37.0Q2466.0 15 2412.5 -1.5Q2359.0 -18 2296.0 -18Q2257.0 -18 2240.0 -3.0Q2223.0 12 2222.5 40.5Q2222.0 69 2234.0 110L2396.0 644Q2422.0 727 2418.0 757.0Q2414.0 787 2388.0 787Q2367.0 787 2340.0 769.5Q2313.0 752 2268.0 699Q2264.0 694 2260.5 692.0Q2257.0 690 2254.0 690ZM3052.0 690Q3049.0 691 3049.5 695.0Q3050.0 699 3054.0 704Q3109.0 792 3188.0 844.0Q3267.0 896 3347.0 896Q3399.0 896 3426.0 872.5Q3453.0 849 3453.0 802Q3453.0 769 3441.0 723.0Q3429.0 677 3413.0 629.5Q3397.0 582 3383.0 542.0Q3369.0 502 3364.0 481L3358.0 483Q3412.0 599 3474.0 678.5Q3536.0 758 3599.5 805.5Q3663.0 853 3722.5 874.5Q3782.0 896 3832.0 896Q3895.0 896 3925.0 867.0Q3955.0 838 3957.0 784.5Q3959.0 731 3937.0 657L3801.0 218Q3774.0 129 3782.0 100.0Q3790.0 71 3814.0 71Q3835.0 71 3860.5 89.0Q3886.0 107 3923.0 154Q3929.0 163 3931.5 165.5Q3934.0 168 3937.0 167Q3941.0 166 3940.5 160.5Q3940.0 155 3935.0 145Q3895.0 72 3825.0 27.0Q3755.0 -18 3655.0 -18Q3597.0 -18 3568.5 3.5Q3540.0 25 3538.0 68.0Q3536.0 111 3557.0 178L3692.0 614Q3722.0 709 3711.5 742.5Q3701.0 776 3659.0 776Q3632.0 776 3590.5 752.5Q3549.0 729 3501.5 677.0Q3454.0 625 3406.5 541.5Q3359.0 458 3319.0 339Q3300.0 283 3289.0 240.0Q3278.0 197 3273.5 166.5Q3269.0 136 3269.0 118Q3269.0 99 3277.0 87.5Q3285.0 76 3285.0 58Q3285.0 25 3231.5 3.5Q3178.0 -18 3084.0 -18Q3023.0 -18 3012.0 6.5Q3001.0 31 3018.0 85L3194.0 644Q3221.0 727 3216.5 757.0Q3212.0 787 3186.0 787Q3165.0 787 3138.0 769.5Q3111.0 752 3066.0 699Q3062.0 694 3058.5 692.0Q3055.0 690 3052.0 690Z" fill="#E8242B"/></g>
</svg>